<mxfile host="app.diagrams.net" modified="2023-10-10T13:26:31.309Z" agent="Mozilla/5.0 (Windows NT 10.0; Win64; x64) AppleWebKit/537.36 (KHTML, like Gecko) Chrome/117.0.0.0 Safari/537.36" etag="9tmRlRwNG5qPPXnPnwY-" version="22.0.4" type="device">
  <diagram name="Page-1" id="bXX732H0oR47pgc_b7OF">
    <mxGraphModel dx="2263" dy="732" grid="1" gridSize="10" guides="1" tooltips="1" connect="1" arrows="1" fold="1" page="1" pageScale="1" pageWidth="827" pageHeight="1169" math="0" shadow="0">
      <root>
        <mxCell id="0" />
        <mxCell id="1" parent="0" />
        <mxCell id="BXKwDYKIKeMLfk2Hn_d0-1" value="" style="rounded=0;whiteSpace=wrap;html=1;fillColor=#dae8fc;strokeColor=#6c8ebf;" vertex="1" parent="1">
          <mxGeometry x="-90" y="50" width="1210" height="510" as="geometry" />
        </mxCell>
        <mxCell id="BXKwDYKIKeMLfk2Hn_d0-66" value="&lt;div style=&quot;text-align: justify;&quot;&gt;&lt;b style=&quot;background-color: initial;&quot;&gt;start time &amp;lt;8 byte&amp;gt;&lt;/b&gt;&lt;/div&gt;&lt;div style=&quot;border-color: var(--border-color); text-align: justify; line-height: 18px;&quot;&gt;&lt;b style=&quot;border-color: var(--border-color); background-color: initial;&quot;&gt;type: &lt;/b&gt;&lt;span style=&quot;border-color: var(--border-color); background-color: initial;&quot;&gt;long&amp;nbsp; &amp;nbsp;&lt;/span&gt;&lt;b style=&quot;border-color: var(--border-color);&quot;&gt;pos:&lt;/b&gt;&amp;nbsp;8&lt;/div&gt;&lt;div style=&quot;border-color: var(--border-color); text-align: justify; line-height: 18px;&quot;&gt;&lt;b style=&quot;border-color: var(--border-color); background-color: initial;&quot;&gt;binary:&amp;nbsp;&lt;/b&gt;0x00 0x00 0x01 0x89 0xc1 0x6d 0x88 0x8b&lt;/div&gt;&lt;div style=&quot;border-color: var(--border-color); text-align: justify; line-height: 18px;&quot;&gt;&lt;b style=&quot;border-color: var(--border-color); background-color: initial;&quot;&gt;value:&amp;nbsp;&lt;/b&gt;1691167328395&lt;/div&gt;" style="rounded=0;whiteSpace=wrap;html=1;fillColor=#dae8fc;strokeColor=#6c8ebf;" vertex="1" parent="1">
          <mxGeometry x="470" y="50" width="650" height="110" as="geometry" />
        </mxCell>
        <mxCell id="BXKwDYKIKeMLfk2Hn_d0-67" value="&lt;div style=&quot;text-align: justify;&quot;&gt;&lt;b style=&quot;background-color: initial; border-color: var(--border-color);&quot;&gt;file format&lt;b style=&quot;text-align: justify; background-color: initial;&quot;&gt;&amp;lt;8 byte&amp;gt;&lt;/b&gt;&lt;/b&gt;&lt;/div&gt;&lt;div style=&quot;border-color: var(--border-color); text-align: justify; line-height: 18px;&quot;&gt;&lt;b style=&quot;border-color: var(--border-color); background-color: initial;&quot;&gt;type: &lt;/b&gt;&lt;span style=&quot;border-color: var(--border-color); background-color: initial;&quot;&gt;long&amp;nbsp; &amp;nbsp;&lt;/span&gt;&lt;b style=&quot;border-color: var(--border-color);&quot;&gt;pos:&lt;/b&gt;&amp;nbsp;0&lt;/div&gt;&lt;div style=&quot;border-color: var(--border-color); text-align: justify; line-height: 18px;&quot;&gt;&lt;b style=&quot;border-color: var(--border-color); background-color: initial;&quot;&gt;binary: &lt;/b&gt;&lt;span style=&quot;border-color: var(--border-color); background-color: initial;&quot;&gt;0xff 0xfe 0xfd 0xfc 0x00 0x00 0x00 0x04&lt;/span&gt;&lt;/div&gt;&lt;div style=&quot;border-color: var(--border-color); text-align: justify; line-height: 18px;&quot;&gt;&lt;b style=&quot;background-color: initial; border-color: var(--border-color);&quot;&gt;value:&amp;nbsp;&lt;/b&gt;18446460382529716228&lt;/div&gt;" style="rounded=0;whiteSpace=wrap;html=1;fillColor=#dae8fc;strokeColor=#6c8ebf;" vertex="1" parent="1">
          <mxGeometry x="-90" y="50" width="560" height="110" as="geometry" />
        </mxCell>
        <mxCell id="BXKwDYKIKeMLfk2Hn_d0-68" value="&lt;div style=&quot;text-align: justify; line-height: 150%;&quot;&gt;&lt;span style=&quot;background-color: initial;&quot;&gt;time&lt;/span&gt;&lt;/div&gt;&lt;div style=&quot;text-align: justify; line-height: 150%;&quot;&gt;&lt;span style=&quot;background-color: initial;&quot;&gt;pos: &lt;span style=&quot;font-weight: 400;&quot;&gt;16&lt;/span&gt;&lt;/span&gt;&lt;/div&gt;&lt;div style=&quot;text-align: justify; line-height: 150%;&quot;&gt;&lt;span style=&quot;background-color: initial;&quot;&gt;binary:&amp;nbsp;&lt;/span&gt;&lt;span style=&quot;background-color: initial; font-weight: 400;&quot;&gt;0x05 0x4d&lt;/span&gt;&lt;/div&gt;&lt;div style=&quot;text-align: justify; line-height: 150%;&quot;&gt;&lt;span style=&quot;background-color: initial;&quot;&gt;value: &lt;span style=&quot;font-weight: 400;&quot;&gt;1357&lt;/span&gt;&lt;/span&gt;&lt;/div&gt;" style="rounded=0;whiteSpace=wrap;html=1;fillColor=#d5e8d4;strokeColor=#82b366;align=center;fontStyle=1" vertex="1" parent="1">
          <mxGeometry x="-80" y="168" width="110" height="80" as="geometry" />
        </mxCell>
        <mxCell id="BXKwDYKIKeMLfk2Hn_d0-69" value="&lt;div style=&quot;text-align: justify; line-height: 150%;&quot;&gt;&lt;span style=&quot;background-color: initial;&quot;&gt;method&lt;/span&gt;&lt;/div&gt;&lt;div style=&quot;text-align: justify; line-height: 150%;&quot;&gt;&lt;span style=&quot;background-color: initial;&quot;&gt;pos: &lt;span style=&quot;font-weight: 400;&quot;&gt;18&lt;/span&gt;&lt;/span&gt;&lt;/div&gt;&lt;div style=&quot;text-align: justify; line-height: 150%;&quot;&gt;&lt;span style=&quot;background-color: initial;&quot;&gt;binary:&amp;nbsp;&lt;/span&gt;&lt;span style=&quot;font-weight: normal;&quot;&gt;0x09&lt;/span&gt;&lt;/div&gt;&lt;div style=&quot;text-align: justify; line-height: 150%;&quot;&gt;&lt;span style=&quot;background-color: initial;&quot;&gt;value: &lt;span style=&quot;font-weight: 400;&quot;&gt;9&lt;/span&gt;&lt;/span&gt;&lt;/div&gt;" style="rounded=0;whiteSpace=wrap;html=1;fillColor=#d5e8d4;strokeColor=#82b366;align=center;fontStyle=1" vertex="1" parent="1">
          <mxGeometry x="30" y="168" width="110" height="80" as="geometry" />
        </mxCell>
        <mxCell id="BXKwDYKIKeMLfk2Hn_d0-70" value="&lt;div style=&quot;text-align: justify; line-height: 150%;&quot;&gt;&lt;span style=&quot;background-color: initial;&quot;&gt;duration&lt;/span&gt;&lt;/div&gt;&lt;div style=&quot;text-align: justify; line-height: 150%;&quot;&gt;&lt;span style=&quot;background-color: initial;&quot;&gt;pos: &lt;span style=&quot;font-weight: 400;&quot;&gt;19&lt;/span&gt;&lt;/span&gt;&lt;/div&gt;&lt;div style=&quot;text-align: justify; line-height: 150%;&quot;&gt;&lt;span style=&quot;background-color: initial;&quot;&gt;binary:&amp;nbsp;&lt;/span&gt;&lt;span style=&quot;background-color: initial; font-weight: 400;&quot;&gt;0x01 0x9f&lt;/span&gt;&lt;/div&gt;&lt;div style=&quot;text-align: justify; line-height: 150%;&quot;&gt;&lt;span style=&quot;background-color: initial;&quot;&gt;value: &lt;span style=&quot;font-weight: 400;&quot;&gt;415&lt;/span&gt;&lt;/span&gt;&lt;/div&gt;" style="rounded=0;whiteSpace=wrap;html=1;fillColor=#d5e8d4;strokeColor=#82b366;align=center;fontStyle=1" vertex="1" parent="1">
          <mxGeometry x="140" y="168" width="110" height="80" as="geometry" />
        </mxCell>
        <mxCell id="BXKwDYKIKeMLfk2Hn_d0-71" value="&lt;div style=&quot;text-align: justify; line-height: 150%;&quot;&gt;&lt;span style=&quot;background-color: initial;&quot;&gt;calls&lt;/span&gt;&lt;/div&gt;&lt;div style=&quot;text-align: justify; line-height: 150%;&quot;&gt;&lt;span style=&quot;background-color: initial;&quot;&gt;pos: &lt;span style=&quot;font-weight: 400;&quot;&gt;21&lt;/span&gt;&lt;/span&gt;&lt;/div&gt;&lt;div style=&quot;text-align: justify; line-height: 150%;&quot;&gt;&lt;span style=&quot;background-color: initial;&quot;&gt;binary:&amp;nbsp;&lt;/span&gt;&lt;span style=&quot;background-color: initial; font-weight: 400;&quot;&gt;0x04&lt;/span&gt;&lt;/div&gt;&lt;div style=&quot;text-align: justify; line-height: 150%;&quot;&gt;&lt;span style=&quot;background-color: initial;&quot;&gt;value: &lt;span style=&quot;font-weight: 400;&quot;&gt;4&lt;/span&gt;&lt;/span&gt;&lt;/div&gt;" style="rounded=0;whiteSpace=wrap;html=1;fillColor=#d5e8d4;strokeColor=#82b366;align=center;fontStyle=1" vertex="1" parent="1">
          <mxGeometry x="250" y="168" width="90" height="80" as="geometry" />
        </mxCell>
        <mxCell id="BXKwDYKIKeMLfk2Hn_d0-72" value="&lt;div style=&quot;text-align: justify;&quot;&gt;&lt;b style=&quot;background-color: initial; border-color: var(--border-color);&quot;&gt;thread index&amp;nbsp;&lt;/b&gt;&lt;/div&gt;&lt;div style=&quot;text-align: justify; line-height: 150%;&quot;&gt;&lt;span style=&quot;background-color: initial;&quot;&gt;pos: &lt;span style=&quot;font-weight: 400;&quot;&gt;22&lt;/span&gt;&lt;/span&gt;&lt;/div&gt;&lt;div style=&quot;text-align: justify; line-height: 150%;&quot;&gt;&lt;span style=&quot;background-color: initial;&quot;&gt;binary:&amp;nbsp;&lt;/span&gt;&lt;span style=&quot;background-color: initial; font-weight: 400;&quot;&gt;0x00&lt;/span&gt;&lt;/div&gt;&lt;div style=&quot;text-align: justify; line-height: 150%;&quot;&gt;&lt;span style=&quot;background-color: initial;&quot;&gt;value: &lt;span style=&quot;font-weight: 400;&quot;&gt;0&lt;/span&gt;&lt;/span&gt;&lt;/div&gt;" style="rounded=0;whiteSpace=wrap;html=1;fillColor=#d5e8d4;strokeColor=#82b366;align=center;fontStyle=1" vertex="1" parent="1">
          <mxGeometry x="339" y="168" width="101" height="80" as="geometry" />
        </mxCell>
        <mxCell id="BXKwDYKIKeMLfk2Hn_d0-73" value="&lt;div style=&quot;text-align: justify;&quot;&gt;&lt;b style=&quot;background-color: initial; border-color: var(--border-color);&quot;&gt;length&lt;/b&gt;&lt;/div&gt;&lt;div style=&quot;text-align: justify; line-height: 150%;&quot;&gt;&lt;span style=&quot;background-color: initial;&quot;&gt;pos: &lt;span style=&quot;font-weight: 400;&quot;&gt;23&lt;/span&gt;&lt;/span&gt;&lt;/div&gt;&lt;div style=&quot;text-align: justify; line-height: 150%;&quot;&gt;&lt;span style=&quot;background-color: initial;&quot;&gt;binary:&amp;nbsp;&lt;/span&gt;&lt;span style=&quot;background-color: initial; font-weight: 400;&quot;&gt;0x04&lt;/span&gt;&lt;/div&gt;&lt;div style=&quot;text-align: justify; line-height: 150%;&quot;&gt;&lt;span style=&quot;background-color: initial;&quot;&gt;value: &lt;span style=&quot;font-weight: 400;&quot;&gt;4&lt;/span&gt;&lt;/span&gt;&lt;/div&gt;" style="rounded=0;whiteSpace=wrap;html=1;fillColor=#A6B5A5;strokeColor=#82b366;align=center;fontStyle=1" vertex="1" parent="1">
          <mxGeometry x="440" y="168" width="110" height="80" as="geometry" />
        </mxCell>
        <mxCell id="BXKwDYKIKeMLfk2Hn_d0-74" value="&lt;div style=&quot;text-align: justify;&quot;&gt;&lt;b style=&quot;background-color: initial; border-color: var(--border-color);&quot;&gt;thread names&lt;/b&gt;&lt;/div&gt;&lt;div style=&quot;text-align: justify; line-height: 150%;&quot;&gt;&lt;span style=&quot;background-color: initial;&quot;&gt;pos: &lt;span style=&quot;font-weight: 400;&quot;&gt;24&lt;/span&gt;&lt;/span&gt;&lt;/div&gt;&lt;div style=&quot;text-align: justify; line-height: 150%;&quot;&gt;&lt;span style=&quot;background-color: initial;&quot;&gt;&lt;font style=&quot;font-size: 12px;&quot;&gt;binary&lt;/font&gt;&lt;/span&gt;&lt;span style=&quot;font-size: 11px; background-color: initial;&quot;&gt;:&amp;nbsp;&lt;/span&gt;&lt;span style=&quot;font-size: 11px; font-weight: normal;&quot;&gt;&lt;font style=&quot;font-size: 11px;&quot;&gt;0x00 0x6D...0x00 0x6E&lt;/font&gt;&lt;/span&gt;&lt;/div&gt;&lt;div style=&quot;text-align: justify; line-height: 150%;&quot;&gt;&lt;span style=&quot;background-color: initial;&quot;&gt;&lt;font style=&quot;font-size: 12px;&quot;&gt;value&lt;/font&gt;&lt;span style=&quot;font-size: 11px;&quot;&gt;: &lt;span style=&quot;font-weight: 400;&quot;&gt;main&lt;/span&gt;&lt;/span&gt;&lt;/span&gt;&lt;/div&gt;" style="rounded=0;whiteSpace=wrap;html=1;fillColor=#d5e8d4;strokeColor=#82b366;align=center;fontStyle=1" vertex="1" parent="1">
          <mxGeometry x="550" y="168" width="170" height="80" as="geometry" />
        </mxCell>
        <mxCell id="BXKwDYKIKeMLfk2Hn_d0-75" value="&lt;div style=&quot;text-align: justify;&quot;&gt;&lt;b style=&quot;border-color: var(--border-color); text-align: center;&quot;&gt;logs written&amp;nbsp;&lt;/b&gt;&lt;br&gt;&lt;/div&gt;&lt;div style=&quot;text-align: justify; line-height: 150%;&quot;&gt;pos: &lt;span style=&quot;font-weight: normal;&quot;&gt;32&lt;/span&gt;&lt;span style=&quot;background-color: initial;&quot;&gt;&lt;/span&gt;&lt;/div&gt;&lt;div style=&quot;text-align: justify; line-height: 150%;&quot;&gt;&lt;span style=&quot;background-color: initial;&quot;&gt;binary:&amp;nbsp;&lt;/span&gt;&lt;span style=&quot;background-color: initial; font-weight: 400;&quot;&gt;0x00&lt;/span&gt;&lt;/div&gt;&lt;div style=&quot;text-align: justify; line-height: 150%;&quot;&gt;&lt;span style=&quot;background-color: initial;&quot;&gt;value: &lt;span style=&quot;font-weight: 400;&quot;&gt;0&lt;/span&gt;&lt;/span&gt;&lt;/div&gt;" style="rounded=0;whiteSpace=wrap;html=1;fillColor=#d5e8d4;strokeColor=#82b366;align=center;fontStyle=1" vertex="1" parent="1">
          <mxGeometry x="720" y="168" width="90" height="80" as="geometry" />
        </mxCell>
        <mxCell id="BXKwDYKIKeMLfk2Hn_d0-76" value="&lt;div style=&quot;text-align: justify;&quot;&gt;&lt;b style=&quot;border-color: var(--border-color); text-align: center;&quot;&gt;logs generated&lt;br style=&quot;border-color: var(--border-color);&quot;&gt;&lt;/b&gt;&lt;/div&gt;&lt;div style=&quot;text-align: justify; line-height: 150%;&quot;&gt;pos: &lt;span style=&quot;font-weight: normal;&quot;&gt;33&lt;/span&gt;&lt;span style=&quot;background-color: initial;&quot;&gt;&lt;/span&gt;&lt;/div&gt;&lt;div style=&quot;text-align: justify; line-height: 150%;&quot;&gt;&lt;span style=&quot;background-color: initial;&quot;&gt;binary:&amp;nbsp;&lt;/span&gt;&lt;span style=&quot;background-color: initial; font-weight: 400;&quot;&gt;0x00&lt;/span&gt;&lt;/div&gt;&lt;div style=&quot;text-align: justify; line-height: 150%;&quot;&gt;&lt;span style=&quot;background-color: initial;&quot;&gt;value: &lt;span style=&quot;font-weight: 400;&quot;&gt;0&lt;/span&gt;&lt;/span&gt;&lt;/div&gt;" style="rounded=0;whiteSpace=wrap;html=1;fillColor=#d5e8d4;strokeColor=#82b366;align=center;fontStyle=1" vertex="1" parent="1">
          <mxGeometry x="810" y="168" width="100" height="80" as="geometry" />
        </mxCell>
        <mxCell id="BXKwDYKIKeMLfk2Hn_d0-77" value="&lt;b style=&quot;border-color: var(--border-color);&quot;&gt;trace file index&lt;br style=&quot;border-color: var(--border-color);&quot;&gt;&lt;/b&gt;&lt;div style=&quot;text-align: justify;&quot;&gt;pos: &lt;span style=&quot;font-weight: normal;&quot;&gt;34&lt;/span&gt;&lt;br&gt;&lt;/div&gt;&lt;div style=&quot;text-align: justify; line-height: 150%;&quot;&gt;&lt;span style=&quot;background-color: initial;&quot;&gt;&lt;/span&gt;&lt;/div&gt;&lt;div style=&quot;text-align: justify; line-height: 150%;&quot;&gt;&lt;span style=&quot;background-color: initial;&quot;&gt;binary:&amp;nbsp;&lt;/span&gt;&lt;span style=&quot;background-color: initial; font-weight: 400;&quot;&gt;0x01&lt;/span&gt;&lt;/div&gt;&lt;div style=&quot;text-align: justify; line-height: 150%;&quot;&gt;&lt;span style=&quot;background-color: initial;&quot;&gt;value: &lt;span style=&quot;font-weight: 400;&quot;&gt;1&lt;/span&gt;&lt;/span&gt;&lt;/div&gt;" style="rounded=0;whiteSpace=wrap;html=1;fillColor=#d5e8d4;strokeColor=#82b366;align=center;fontStyle=1" vertex="1" parent="1">
          <mxGeometry x="910" y="168" width="100" height="80" as="geometry" />
        </mxCell>
        <mxCell id="BXKwDYKIKeMLfk2Hn_d0-78" value="&lt;b style=&quot;border-color: var(--border-color);&quot;&gt;buffer offset&lt;br style=&quot;border-color: var(--border-color);&quot;&gt;&lt;/b&gt;&lt;div style=&quot;text-align: justify;&quot;&gt;pos: &lt;span style=&quot;font-weight: normal;&quot;&gt;35&lt;/span&gt;&lt;br&gt;&lt;/div&gt;&lt;div style=&quot;text-align: justify; line-height: 150%;&quot;&gt;&lt;span style=&quot;background-color: initial;&quot;&gt;&lt;/span&gt;&lt;/div&gt;&lt;div style=&quot;text-align: justify; line-height: 150%;&quot;&gt;&lt;span style=&quot;background-color: initial;&quot;&gt;binary:&amp;nbsp;&lt;/span&gt;&lt;span style=&quot;background-color: initial; font-weight: 400;&quot;&gt;0x08&lt;/span&gt;&lt;/div&gt;&lt;div style=&quot;text-align: justify; line-height: 150%;&quot;&gt;&lt;span style=&quot;background-color: initial;&quot;&gt;value: &lt;span style=&quot;font-weight: 400;&quot;&gt;8&lt;/span&gt;&lt;/span&gt;&lt;/div&gt;" style="rounded=0;whiteSpace=wrap;html=1;fillColor=#d5e8d4;strokeColor=#82b366;align=center;fontStyle=1" vertex="1" parent="1">
          <mxGeometry x="1010" y="168" width="100" height="80" as="geometry" />
        </mxCell>
        <mxCell id="BXKwDYKIKeMLfk2Hn_d0-79" value="&lt;div style=&quot;text-align: justify;&quot;&gt;&lt;b style=&quot;background-color: initial; border-color: var(--border-color);&quot;&gt;record index&lt;/b&gt;&lt;/div&gt;&lt;div style=&quot;text-align: justify; line-height: 150%;&quot;&gt;&lt;span style=&quot;background-color: initial;&quot;&gt;pos: &lt;span style=&quot;font-weight: 400;&quot;&gt;36&lt;/span&gt;&lt;/span&gt;&lt;/div&gt;&lt;div style=&quot;text-align: justify; line-height: 150%;&quot;&gt;&lt;span style=&quot;background-color: initial;&quot;&gt;binary:&amp;nbsp;&lt;/span&gt;&lt;span style=&quot;background-color: initial; font-weight: 400;&quot;&gt;0x00&lt;/span&gt;&lt;/div&gt;&lt;div style=&quot;text-align: justify; line-height: 150%;&quot;&gt;&lt;span style=&quot;background-color: initial;&quot;&gt;value: &lt;span style=&quot;font-weight: 400;&quot;&gt;0&lt;/span&gt;&lt;/span&gt;&lt;/div&gt;" style="rounded=0;whiteSpace=wrap;html=1;fillColor=#d5e8d4;strokeColor=#82b366;align=center;fontStyle=1" vertex="1" parent="1">
          <mxGeometry x="-80" y="248" width="110" height="80" as="geometry" />
        </mxCell>
        <mxCell id="BXKwDYKIKeMLfk2Hn_d0-80" value="&lt;div style=&quot;text-align: justify; line-height: 150%;&quot;&gt;cpu time&lt;/div&gt;&lt;div style=&quot;text-align: justify; line-height: 150%;&quot;&gt;&lt;span style=&quot;background-color: initial;&quot;&gt;pos: &lt;span style=&quot;font-weight: 400;&quot;&gt;37&lt;/span&gt;&lt;/span&gt;&lt;/div&gt;&lt;div style=&quot;text-align: justify; line-height: 150%;&quot;&gt;&lt;span style=&quot;background-color: initial;&quot;&gt;binary:&amp;nbsp;&lt;/span&gt;&lt;span style=&quot;font-weight: normal; background-color: initial;&quot;&gt;0x04 0xA0&lt;/span&gt;&lt;/div&gt;&lt;div style=&quot;text-align: justify; line-height: 150%;&quot;&gt;&lt;span style=&quot;background-color: initial;&quot;&gt;value: &lt;span style=&quot;font-weight: 400;&quot;&gt;1184&lt;/span&gt;&lt;/span&gt;&lt;/div&gt;" style="rounded=0;whiteSpace=wrap;html=1;fillColor=#d5e8d4;strokeColor=#82b366;align=center;fontStyle=1" vertex="1" parent="1">
          <mxGeometry x="30" y="248" width="110" height="80" as="geometry" />
        </mxCell>
        <mxCell id="BXKwDYKIKeMLfk2Hn_d0-81" value="&lt;div style=&quot;text-align: justify; line-height: 150%;&quot;&gt;&lt;span style=&quot;background-color: initial;&quot;&gt;wait time&lt;/span&gt;&lt;/div&gt;&lt;div style=&quot;text-align: justify; line-height: 150%;&quot;&gt;&lt;span style=&quot;background-color: initial;&quot;&gt;pos: &lt;span style=&quot;font-weight: 400;&quot;&gt;39&lt;/span&gt;&lt;/span&gt;&lt;/div&gt;&lt;div style=&quot;text-align: justify; line-height: 150%;&quot;&gt;&lt;span style=&quot;background-color: initial;&quot;&gt;binary:&amp;nbsp;&lt;/span&gt;&lt;span style=&quot;background-color: initial; font-weight: 400;&quot;&gt;0x00&lt;/span&gt;&lt;/div&gt;&lt;div style=&quot;text-align: justify; line-height: 150%;&quot;&gt;&lt;span style=&quot;background-color: initial;&quot;&gt;value: &lt;span style=&quot;font-weight: 400;&quot;&gt;0&lt;/span&gt;&lt;/span&gt;&lt;/div&gt;" style="rounded=0;whiteSpace=wrap;html=1;fillColor=#d5e8d4;strokeColor=#82b366;align=center;fontStyle=1" vertex="1" parent="1">
          <mxGeometry x="140" y="248" width="110" height="80" as="geometry" />
        </mxCell>
        <mxCell id="BXKwDYKIKeMLfk2Hn_d0-82" value="&lt;b style=&quot;border-color: var(--border-color);&quot;&gt;memory used&lt;br&gt;&lt;/b&gt;&lt;div style=&quot;text-align: justify; line-height: 150%;&quot;&gt;&lt;span style=&quot;background-color: initial;&quot;&gt;pos: &lt;span style=&quot;font-weight: 400;&quot;&gt;40&lt;/span&gt;&lt;/span&gt;&lt;/div&gt;&lt;div style=&quot;text-align: justify; line-height: 150%;&quot;&gt;&lt;span style=&quot;background-color: initial;&quot;&gt;binary:&amp;nbsp;&lt;/span&gt;&lt;span style=&quot;background-color: initial; font-weight: 400;&quot;&gt;0x00&lt;/span&gt;&lt;/div&gt;&lt;div style=&quot;text-align: justify; line-height: 150%;&quot;&gt;&lt;span style=&quot;background-color: initial;&quot;&gt;value: &lt;span style=&quot;font-weight: 400;&quot;&gt;0&lt;/span&gt;&lt;/span&gt;&lt;/div&gt;" style="rounded=0;whiteSpace=wrap;html=1;fillColor=#d5e8d4;strokeColor=#82b366;align=center;fontStyle=1" vertex="1" parent="1">
          <mxGeometry x="250" y="248" width="90" height="80" as="geometry" />
        </mxCell>
        <mxCell id="BXKwDYKIKeMLfk2Hn_d0-83" value="&lt;div style=&quot;text-align: justify;&quot;&gt;&lt;b style=&quot;border-color: var(--border-color); text-align: center;&quot;&gt;file read&lt;/b&gt;&lt;br&gt;&lt;/div&gt;&lt;div style=&quot;text-align: justify; line-height: 150%;&quot;&gt;pos: &lt;span style=&quot;font-weight: normal;&quot;&gt;41&lt;/span&gt;&lt;span style=&quot;background-color: initial;&quot;&gt;&lt;/span&gt;&lt;/div&gt;&lt;div style=&quot;text-align: justify; line-height: 150%;&quot;&gt;&lt;span style=&quot;background-color: initial;&quot;&gt;binary:&amp;nbsp;&lt;/span&gt;&lt;span style=&quot;background-color: initial; font-weight: 400;&quot;&gt;0x00&lt;/span&gt;&lt;/div&gt;&lt;div style=&quot;text-align: justify; line-height: 150%;&quot;&gt;&lt;span style=&quot;background-color: initial;&quot;&gt;value: &lt;span style=&quot;font-weight: 400;&quot;&gt;0&lt;/span&gt;&lt;/span&gt;&lt;/div&gt;" style="rounded=0;whiteSpace=wrap;html=1;fillColor=#d5e8d4;strokeColor=#82b366;align=center;fontStyle=1" vertex="1" parent="1">
          <mxGeometry x="340" y="248" width="100" height="80" as="geometry" />
        </mxCell>
        <mxCell id="BXKwDYKIKeMLfk2Hn_d0-84" value="&lt;div style=&quot;text-align: justify;&quot;&gt;&lt;b style=&quot;border-color: var(--border-color); text-align: center;&quot;&gt;file written&lt;/b&gt;&lt;br&gt;&lt;/div&gt;&lt;div style=&quot;text-align: justify; line-height: 150%;&quot;&gt;pos: &lt;span style=&quot;font-weight: normal;&quot;&gt;42&lt;/span&gt;&lt;span style=&quot;background-color: initial;&quot;&gt;&lt;/span&gt;&lt;/div&gt;&lt;div style=&quot;text-align: justify; line-height: 150%;&quot;&gt;&lt;span style=&quot;background-color: initial;&quot;&gt;binary:&amp;nbsp;&lt;/span&gt;&lt;span style=&quot;background-color: initial; font-weight: 400;&quot;&gt;0x00&lt;/span&gt;&lt;/div&gt;&lt;div style=&quot;text-align: justify; line-height: 150%;&quot;&gt;&lt;span style=&quot;background-color: initial;&quot;&gt;value: &lt;span style=&quot;font-weight: 400;&quot;&gt;0&lt;/span&gt;&lt;/span&gt;&lt;/div&gt;" style="rounded=0;whiteSpace=wrap;html=1;fillColor=#d5e8d4;strokeColor=#82b366;align=center;fontStyle=1" vertex="1" parent="1">
          <mxGeometry x="440" y="248" width="110" height="80" as="geometry" />
        </mxCell>
        <mxCell id="BXKwDYKIKeMLfk2Hn_d0-85" value="&lt;div style=&quot;text-align: justify;&quot;&gt;net read&lt;/div&gt;&lt;div style=&quot;text-align: justify; line-height: 150%;&quot;&gt;&lt;span style=&quot;background-color: initial;&quot;&gt;pos: &lt;span style=&quot;font-weight: 400;&quot;&gt;43&lt;/span&gt;&lt;/span&gt;&lt;/div&gt;&lt;div style=&quot;text-align: justify; line-height: 150%;&quot;&gt;&lt;span style=&quot;background-color: initial;&quot;&gt;binary:&amp;nbsp;&lt;/span&gt;&lt;span style=&quot;background-color: initial; font-weight: 400;&quot;&gt;0x00&lt;/span&gt;&lt;/div&gt;&lt;div style=&quot;text-align: justify; line-height: 150%;&quot;&gt;&lt;span style=&quot;background-color: initial;&quot;&gt;value: &lt;span style=&quot;font-weight: 400;&quot;&gt;0&lt;/span&gt;&lt;/span&gt;&lt;/div&gt;" style="rounded=0;whiteSpace=wrap;html=1;fillColor=#d5e8d4;strokeColor=#82b366;align=center;fontStyle=1" vertex="1" parent="1">
          <mxGeometry x="550" y="248" width="170" height="80" as="geometry" />
        </mxCell>
        <mxCell id="BXKwDYKIKeMLfk2Hn_d0-86" value="&lt;div style=&quot;text-align: justify;&quot;&gt;&lt;b style=&quot;border-color: var(--border-color); text-align: center;&quot;&gt;net written&lt;/b&gt;&lt;br&gt;&lt;/div&gt;&lt;div style=&quot;text-align: justify; line-height: 150%;&quot;&gt;pos: &lt;span style=&quot;font-weight: normal;&quot;&gt;44&lt;/span&gt;&lt;span style=&quot;background-color: initial;&quot;&gt;&lt;/span&gt;&lt;/div&gt;&lt;div style=&quot;text-align: justify; line-height: 150%;&quot;&gt;&lt;span style=&quot;background-color: initial;&quot;&gt;binary:&amp;nbsp;&lt;/span&gt;&lt;span style=&quot;background-color: initial; font-weight: 400;&quot;&gt;0x00&lt;/span&gt;&lt;/div&gt;&lt;div style=&quot;text-align: justify; line-height: 150%;&quot;&gt;&lt;span style=&quot;background-color: initial;&quot;&gt;value: &lt;span style=&quot;font-weight: 400;&quot;&gt;0&lt;/span&gt;&lt;/span&gt;&lt;/div&gt;" style="rounded=0;whiteSpace=wrap;html=1;fillColor=#d5e8d4;strokeColor=#82b366;align=center;fontStyle=1" vertex="1" parent="1">
          <mxGeometry x="720" y="248" width="90" height="80" as="geometry" />
        </mxCell>
        <mxCell id="BXKwDYKIKeMLfk2Hn_d0-87" value="&lt;div style=&quot;text-align: justify;&quot;&gt;&lt;b style=&quot;border-color: var(--border-color); text-align: center;&quot;&gt;&lt;b style=&quot;border-color: var(--border-color);&quot;&gt;transactions&lt;/b&gt;&lt;br style=&quot;border-color: var(--border-color);&quot;&gt;&lt;/b&gt;&lt;/div&gt;&lt;div style=&quot;text-align: justify; line-height: 150%;&quot;&gt;pos: &lt;span style=&quot;font-weight: normal;&quot;&gt;45&lt;/span&gt;&lt;span style=&quot;background-color: initial;&quot;&gt;&lt;/span&gt;&lt;/div&gt;&lt;div style=&quot;text-align: justify; line-height: 150%;&quot;&gt;&lt;span style=&quot;background-color: initial;&quot;&gt;binary:&amp;nbsp;&lt;/span&gt;&lt;span style=&quot;background-color: initial; font-weight: 400;&quot;&gt;0x00&lt;/span&gt;&lt;/div&gt;&lt;div style=&quot;text-align: justify; line-height: 150%;&quot;&gt;&lt;span style=&quot;background-color: initial;&quot;&gt;value: &lt;span style=&quot;font-weight: 400;&quot;&gt;0&lt;/span&gt;&lt;/span&gt;&lt;/div&gt;" style="rounded=0;whiteSpace=wrap;html=1;fillColor=#d5e8d4;strokeColor=#82b366;align=center;fontStyle=1" vertex="1" parent="1">
          <mxGeometry x="810" y="248" width="100" height="80" as="geometry" />
        </mxCell>
        <mxCell id="BXKwDYKIKeMLfk2Hn_d0-88" value="&lt;div style=&quot;text-align: justify;&quot;&gt;&lt;b style=&quot;background-color: initial; border-color: var(--border-color);&quot;&gt;queue wait&amp;nbsp;&lt;/b&gt;&lt;/div&gt;&lt;div style=&quot;text-align: justify;&quot;&gt;&lt;b style=&quot;background-color: initial; border-color: var(--border-color);&quot;&gt;duration&lt;/b&gt;&lt;/div&gt;&lt;div style=&quot;text-align: justify;&quot;&gt;pos: &lt;span style=&quot;font-weight: normal;&quot;&gt;46&lt;/span&gt;&lt;br&gt;&lt;/div&gt;&lt;div style=&quot;text-align: justify; line-height: 150%;&quot;&gt;&lt;span style=&quot;background-color: initial;&quot;&gt;&lt;/span&gt;&lt;/div&gt;&lt;div style=&quot;text-align: justify; line-height: 150%;&quot;&gt;&lt;span style=&quot;background-color: initial;&quot;&gt;binary:&amp;nbsp;&lt;/span&gt;&lt;span style=&quot;background-color: initial; font-weight: 400;&quot;&gt;0x00&lt;/span&gt;&lt;/div&gt;&lt;div style=&quot;text-align: justify; line-height: 150%;&quot;&gt;&lt;span style=&quot;background-color: initial;&quot;&gt;value: &lt;span style=&quot;font-weight: 400;&quot;&gt;0&lt;/span&gt;&lt;/span&gt;&lt;/div&gt;" style="rounded=0;whiteSpace=wrap;html=1;fillColor=#d5e8d4;strokeColor=#82b366;align=center;fontStyle=1" vertex="1" parent="1">
          <mxGeometry x="910" y="248" width="100" height="80" as="geometry" />
        </mxCell>
        <mxCell id="BXKwDYKIKeMLfk2Hn_d0-89" value="&lt;div style=&quot;text-align: justify;&quot;&gt;&lt;b style=&quot;background-color: initial; border-color: var(--border-color);&quot;&gt;nparams&lt;/b&gt;&lt;/div&gt;&lt;div style=&quot;text-align: justify;&quot;&gt;pos: &lt;span style=&quot;font-weight: normal;&quot;&gt;47&lt;/span&gt;&lt;br&gt;&lt;/div&gt;&lt;div style=&quot;text-align: justify; line-height: 150%;&quot;&gt;&lt;span style=&quot;background-color: initial;&quot;&gt;&lt;/span&gt;&lt;/div&gt;&lt;div style=&quot;text-align: justify; line-height: 150%;&quot;&gt;&lt;span style=&quot;background-color: initial;&quot;&gt;binary:&amp;nbsp;&lt;/span&gt;&lt;span style=&quot;background-color: initial; font-weight: 400;&quot;&gt;0x040&lt;/span&gt;&lt;/div&gt;&lt;div style=&quot;text-align: justify; line-height: 150%;&quot;&gt;&lt;span style=&quot;background-color: initial;&quot;&gt;value: &lt;span style=&quot;font-weight: 400;&quot;&gt;0&lt;/span&gt;&lt;/span&gt;&lt;/div&gt;" style="rounded=0;whiteSpace=wrap;html=1;fillColor=#d5e8d4;strokeColor=#82b366;align=center;fontStyle=1" vertex="1" parent="1">
          <mxGeometry x="1010" y="248" width="100" height="80" as="geometry" />
        </mxCell>
        <mxCell id="BXKwDYKIKeMLfk2Hn_d0-90" value="&lt;div style=&quot;text-align: justify; line-height: 150%;&quot;&gt;&lt;span style=&quot;background-color: initial;&quot;&gt;time&lt;/span&gt;&lt;/div&gt;&lt;div style=&quot;text-align: justify; line-height: 150%;&quot;&gt;&lt;span style=&quot;background-color: initial;&quot;&gt;pos: &lt;span style=&quot;font-weight: 400;&quot;&gt;48&lt;/span&gt;&lt;/span&gt;&lt;/div&gt;&lt;div style=&quot;text-align: justify; line-height: 150%;&quot;&gt;&lt;span style=&quot;background-color: initial;&quot;&gt;binary:&amp;nbsp;&lt;/span&gt;&lt;span style=&quot;background-color: initial; font-weight: 400;&quot;&gt;0xb6 0x18&lt;/span&gt;&lt;/div&gt;&lt;div style=&quot;text-align: justify; line-height: 150%;&quot;&gt;&lt;span style=&quot;background-color: initial;&quot;&gt;value: &lt;span style=&quot;font-weight: 400;&quot;&gt;5816&lt;/span&gt;&lt;/span&gt;&lt;/div&gt;" style="rounded=0;whiteSpace=wrap;html=1;fillColor=#d5e8d4;strokeColor=#82b366;align=center;fontStyle=1" vertex="1" parent="1">
          <mxGeometry x="-80" y="340" width="110" height="80" as="geometry" />
        </mxCell>
        <mxCell id="BXKwDYKIKeMLfk2Hn_d0-91" value="&lt;div style=&quot;text-align: justify; line-height: 150%;&quot;&gt;&lt;span style=&quot;background-color: initial;&quot;&gt;method&lt;/span&gt;&lt;/div&gt;&lt;div style=&quot;text-align: justify; line-height: 150%;&quot;&gt;&lt;span style=&quot;background-color: initial;&quot;&gt;pos: &lt;span style=&quot;font-weight: 400;&quot;&gt;50&lt;/span&gt;&lt;/span&gt;&lt;/div&gt;&lt;div style=&quot;text-align: justify; line-height: 150%;&quot;&gt;&lt;span style=&quot;background-color: initial;&quot;&gt;binary: 0&lt;span style=&quot;font-weight: 400;&quot;&gt;xae&lt;/span&gt;&lt;/span&gt;&lt;/div&gt;&lt;div style=&quot;text-align: justify; line-height: 150%;&quot;&gt;&lt;span style=&quot;background-color: initial;&quot;&gt;value: &lt;span style=&quot;font-weight: 400;&quot;&gt;174&lt;/span&gt;&lt;/span&gt;&lt;/div&gt;" style="rounded=0;whiteSpace=wrap;html=1;fillColor=#d5e8d4;strokeColor=#82b366;align=center;fontStyle=1" vertex="1" parent="1">
          <mxGeometry x="30" y="340" width="110" height="80" as="geometry" />
        </mxCell>
        <mxCell id="BXKwDYKIKeMLfk2Hn_d0-92" value="&lt;div style=&quot;text-align: justify; line-height: 150%;&quot;&gt;&lt;span style=&quot;background-color: initial;&quot;&gt;duration&lt;/span&gt;&lt;/div&gt;&lt;div style=&quot;text-align: justify; line-height: 150%;&quot;&gt;&lt;span style=&quot;background-color: initial;&quot;&gt;pos: &lt;span style=&quot;font-weight: 400;&quot;&gt;51&lt;/span&gt;&lt;/span&gt;&lt;/div&gt;&lt;div style=&quot;text-align: justify; line-height: 150%;&quot;&gt;&lt;span style=&quot;background-color: initial;&quot;&gt;binary: &lt;span style=&quot;font-weight: 400;&quot;&gt;0x01&lt;/span&gt;&lt;/span&gt;&lt;/div&gt;&lt;div style=&quot;text-align: justify; line-height: 150%;&quot;&gt;&lt;span style=&quot;background-color: initial;&quot;&gt;value: &lt;span style=&quot;font-weight: 400;&quot;&gt;1&lt;/span&gt;&lt;/span&gt;&lt;/div&gt;" style="rounded=0;whiteSpace=wrap;html=1;fillColor=#d5e8d4;strokeColor=#82b366;align=center;fontStyle=1" vertex="1" parent="1">
          <mxGeometry x="140" y="340" width="110" height="80" as="geometry" />
        </mxCell>
        <mxCell id="BXKwDYKIKeMLfk2Hn_d0-93" value="&lt;div style=&quot;text-align: justify; line-height: 150%;&quot;&gt;&lt;span style=&quot;background-color: initial;&quot;&gt;calls&lt;/span&gt;&lt;/div&gt;&lt;div style=&quot;text-align: justify; line-height: 150%;&quot;&gt;&lt;span style=&quot;background-color: initial;&quot;&gt;pos: &lt;span style=&quot;font-weight: 400;&quot;&gt;52&lt;/span&gt;&lt;/span&gt;&lt;/div&gt;&lt;div style=&quot;text-align: justify; line-height: 150%;&quot;&gt;&lt;span style=&quot;background-color: initial;&quot;&gt;binary:&amp;nbsp;&lt;/span&gt;&lt;span style=&quot;background-color: initial; font-weight: 400;&quot;&gt;0x03&lt;/span&gt;&lt;/div&gt;&lt;div style=&quot;text-align: justify; line-height: 150%;&quot;&gt;&lt;span style=&quot;background-color: initial;&quot;&gt;value: &lt;span style=&quot;font-weight: 400;&quot;&gt;3&lt;/span&gt;&lt;/span&gt;&lt;/div&gt;" style="rounded=0;whiteSpace=wrap;html=1;fillColor=#d5e8d4;strokeColor=#82b366;align=center;fontStyle=1" vertex="1" parent="1">
          <mxGeometry x="250" y="340" width="90" height="80" as="geometry" />
        </mxCell>
        <mxCell id="BXKwDYKIKeMLfk2Hn_d0-94" value="&lt;div style=&quot;text-align: justify;&quot;&gt;&lt;b style=&quot;background-color: initial; border-color: var(--border-color);&quot;&gt;thread index&amp;nbsp;&lt;/b&gt;&lt;/div&gt;&lt;div style=&quot;text-align: justify; line-height: 150%;&quot;&gt;&lt;span style=&quot;background-color: initial;&quot;&gt;pos: &lt;span style=&quot;font-weight: 400;&quot;&gt;53&lt;/span&gt;&lt;/span&gt;&lt;/div&gt;&lt;div style=&quot;text-align: justify; line-height: 150%;&quot;&gt;&lt;span style=&quot;background-color: initial;&quot;&gt;binary:&amp;nbsp;&lt;/span&gt;&lt;span style=&quot;background-color: initial; font-weight: 400;&quot;&gt;0x01&lt;/span&gt;&lt;/div&gt;&lt;div style=&quot;text-align: justify; line-height: 150%;&quot;&gt;&lt;span style=&quot;background-color: initial;&quot;&gt;value: &lt;span style=&quot;font-weight: 400;&quot;&gt;1&lt;/span&gt;&lt;/span&gt;&lt;/div&gt;" style="rounded=0;whiteSpace=wrap;html=1;fillColor=#d5e8d4;strokeColor=#82b366;align=center;fontStyle=1" vertex="1" parent="1">
          <mxGeometry x="339" y="340" width="101" height="80" as="geometry" />
        </mxCell>
        <mxCell id="BXKwDYKIKeMLfk2Hn_d0-95" value="&lt;div style=&quot;text-align: justify;&quot;&gt;&lt;b style=&quot;background-color: initial; border-color: var(--border-color);&quot;&gt;length&lt;/b&gt;&lt;/div&gt;&lt;div style=&quot;text-align: justify; line-height: 150%;&quot;&gt;&lt;span style=&quot;background-color: initial;&quot;&gt;pos: &lt;span style=&quot;font-weight: 400;&quot;&gt;54&lt;/span&gt;&lt;/span&gt;&lt;/div&gt;&lt;div style=&quot;text-align: justify; line-height: 150%;&quot;&gt;&lt;span style=&quot;background-color: initial;&quot;&gt;binary:&amp;nbsp;&lt;/span&gt;&lt;span style=&quot;font-weight: normal;&quot;&gt;0x12&lt;/span&gt;&lt;/div&gt;&lt;div style=&quot;text-align: justify; line-height: 150%;&quot;&gt;&lt;span style=&quot;background-color: initial;&quot;&gt;value: &lt;span style=&quot;font-weight: 400;&quot;&gt;18&lt;/span&gt;&lt;/span&gt;&lt;/div&gt;" style="rounded=0;whiteSpace=wrap;html=1;fillColor=#A6B5A5;strokeColor=#82b366;align=center;fontStyle=1" vertex="1" parent="1">
          <mxGeometry x="440" y="340" width="110" height="80" as="geometry" />
        </mxCell>
        <mxCell id="BXKwDYKIKeMLfk2Hn_d0-96" value="&lt;div style=&quot;text-align: justify;&quot;&gt;&lt;b style=&quot;background-color: initial; border-color: var(--border-color);&quot;&gt;thread names&lt;/b&gt;&lt;/div&gt;&lt;div style=&quot;text-align: justify; line-height: 150%;&quot;&gt;&lt;span style=&quot;background-color: initial;&quot;&gt;pos: &lt;span style=&quot;font-weight: 400;&quot;&gt;55&lt;/span&gt;&lt;/span&gt;&lt;/div&gt;&lt;div style=&quot;text-align: justify; line-height: 150%;&quot;&gt;&lt;span style=&quot;background-color: initial;&quot;&gt;&lt;font style=&quot;font-size: 12px;&quot;&gt;binary&lt;/font&gt;&lt;/span&gt;&lt;span style=&quot;font-size: 11px; background-color: initial;&quot;&gt;:&amp;nbsp;&lt;/span&gt;&lt;span style=&quot;font-weight: normal;&quot;&gt;0x00 0x62..0x00 0x74&lt;/span&gt;&lt;/div&gt;&lt;div style=&quot;text-align: justify; line-height: 150%;&quot;&gt;&lt;span style=&quot;background-color: initial;&quot;&gt;&lt;font style=&quot;font-size: 12px;&quot;&gt;value&lt;/font&gt;&lt;span style=&quot;font-size: 11px;&quot;&gt;:&amp;nbsp;&lt;/span&gt;&lt;/span&gt;&lt;span style=&quot;font-weight: normal;&quot;&gt;background-preinit&lt;/span&gt;&lt;/div&gt;" style="rounded=0;whiteSpace=wrap;html=1;fillColor=#d5e8d4;strokeColor=#82b366;align=center;fontStyle=1" vertex="1" parent="1">
          <mxGeometry x="550" y="340" width="170" height="80" as="geometry" />
        </mxCell>
        <mxCell id="BXKwDYKIKeMLfk2Hn_d0-97" value="&lt;div style=&quot;text-align: justify;&quot;&gt;&lt;b style=&quot;border-color: var(--border-color); text-align: center;&quot;&gt;logs written&amp;nbsp;&lt;/b&gt;&lt;br&gt;&lt;/div&gt;&lt;div style=&quot;text-align: justify; line-height: 150%;&quot;&gt;pos: &lt;span style=&quot;font-weight: 400;&quot;&gt;91&lt;/span&gt;&lt;span style=&quot;background-color: initial;&quot;&gt;&lt;/span&gt;&lt;/div&gt;&lt;div style=&quot;text-align: justify; line-height: 150%;&quot;&gt;&lt;span style=&quot;background-color: initial;&quot;&gt;binary:&amp;nbsp;&lt;/span&gt;&lt;span style=&quot;background-color: initial; font-weight: 400;&quot;&gt;0x00&lt;/span&gt;&lt;/div&gt;&lt;div style=&quot;text-align: justify; line-height: 150%;&quot;&gt;&lt;span style=&quot;background-color: initial;&quot;&gt;value: &lt;span style=&quot;font-weight: 400;&quot;&gt;0&lt;/span&gt;&lt;/span&gt;&lt;/div&gt;" style="rounded=0;whiteSpace=wrap;html=1;fillColor=#d5e8d4;strokeColor=#82b366;align=center;fontStyle=1" vertex="1" parent="1">
          <mxGeometry x="720" y="340" width="90" height="80" as="geometry" />
        </mxCell>
        <mxCell id="BXKwDYKIKeMLfk2Hn_d0-98" value="&lt;div style=&quot;text-align: justify;&quot;&gt;&lt;b style=&quot;border-color: var(--border-color); text-align: center;&quot;&gt;logs generated&lt;br style=&quot;border-color: var(--border-color);&quot;&gt;&lt;/b&gt;&lt;/div&gt;&lt;div style=&quot;text-align: justify; line-height: 150%;&quot;&gt;pos: &lt;span style=&quot;font-weight: 400;&quot;&gt;92&lt;/span&gt;&lt;span style=&quot;background-color: initial;&quot;&gt;&lt;/span&gt;&lt;/div&gt;&lt;div style=&quot;text-align: justify; line-height: 150%;&quot;&gt;&lt;span style=&quot;background-color: initial;&quot;&gt;binary:&amp;nbsp;&lt;/span&gt;&lt;span style=&quot;background-color: initial; font-weight: 400;&quot;&gt;0x00&lt;/span&gt;&lt;/div&gt;&lt;div style=&quot;text-align: justify; line-height: 150%;&quot;&gt;&lt;span style=&quot;background-color: initial;&quot;&gt;value: &lt;span style=&quot;font-weight: 400;&quot;&gt;0&lt;/span&gt;&lt;/span&gt;&lt;/div&gt;" style="rounded=0;whiteSpace=wrap;html=1;fillColor=#d5e8d4;strokeColor=#82b366;align=center;fontStyle=1" vertex="1" parent="1">
          <mxGeometry x="810" y="340" width="100" height="80" as="geometry" />
        </mxCell>
        <mxCell id="BXKwDYKIKeMLfk2Hn_d0-99" value="&lt;b style=&quot;border-color: var(--border-color);&quot;&gt;trace file index&lt;br style=&quot;border-color: var(--border-color);&quot;&gt;&lt;/b&gt;&lt;div style=&quot;text-align: justify;&quot;&gt;pos: &lt;span style=&quot;font-weight: 400;&quot;&gt;93&lt;/span&gt;&lt;br&gt;&lt;/div&gt;&lt;div style=&quot;text-align: justify; line-height: 150%;&quot;&gt;&lt;span style=&quot;background-color: initial;&quot;&gt;&lt;/span&gt;&lt;/div&gt;&lt;div style=&quot;text-align: justify; line-height: 150%;&quot;&gt;&lt;span style=&quot;background-color: initial;&quot;&gt;binary:&amp;nbsp;&lt;/span&gt;&lt;span style=&quot;background-color: initial; font-weight: 400;&quot;&gt;0x01&lt;/span&gt;&lt;/div&gt;&lt;div style=&quot;text-align: justify; line-height: 150%;&quot;&gt;&lt;span style=&quot;background-color: initial;&quot;&gt;value: &lt;span style=&quot;font-weight: 400;&quot;&gt;1&lt;/span&gt;&lt;/span&gt;&lt;/div&gt;" style="rounded=0;whiteSpace=wrap;html=1;fillColor=#d5e8d4;strokeColor=#82b366;align=center;fontStyle=1" vertex="1" parent="1">
          <mxGeometry x="910" y="340" width="100" height="80" as="geometry" />
        </mxCell>
        <mxCell id="BXKwDYKIKeMLfk2Hn_d0-100" value="&lt;div style=&quot;text-align: justify;&quot;&gt;&lt;b style=&quot;background-color: initial; border-color: var(--border-color);&quot;&gt;buffer offset&lt;/b&gt;&lt;/div&gt;&lt;div style=&quot;text-align: justify;&quot;&gt;pos: &lt;span style=&quot;font-weight: 400;&quot;&gt;94&lt;/span&gt;&lt;br&gt;&lt;/div&gt;&lt;div style=&quot;text-align: justify; line-height: 150%;&quot;&gt;&lt;span style=&quot;background-color: initial;&quot;&gt;&lt;/span&gt;&lt;/div&gt;&lt;div style=&quot;text-align: justify; line-height: 150%;&quot;&gt;&lt;span style=&quot;background-color: initial;&quot;&gt;binary:&lt;/span&gt;&lt;span style=&quot;background-color: initial; font-weight: 400;&quot;&gt;0x03 0xe5&lt;/span&gt;&lt;/div&gt;&lt;div style=&quot;text-align: justify; line-height: 150%;&quot;&gt;&lt;span style=&quot;background-color: initial;&quot;&gt;value: &lt;span style=&quot;font-weight: 400;&quot;&gt;997&lt;/span&gt;&lt;/span&gt;&lt;/div&gt;" style="rounded=0;whiteSpace=wrap;html=1;fillColor=#d5e8d4;strokeColor=#82b366;align=center;fontStyle=1" vertex="1" parent="1">
          <mxGeometry x="1010" y="340" width="100" height="80" as="geometry" />
        </mxCell>
        <mxCell id="BXKwDYKIKeMLfk2Hn_d0-101" value="&lt;div style=&quot;text-align: justify;&quot;&gt;&lt;b style=&quot;background-color: initial; border-color: var(--border-color);&quot;&gt;record index&lt;/b&gt;&lt;/div&gt;&lt;div style=&quot;text-align: justify; line-height: 150%;&quot;&gt;&lt;span style=&quot;background-color: initial;&quot;&gt;pos: &lt;span style=&quot;font-weight: 400;&quot;&gt;96&lt;/span&gt;&lt;/span&gt;&lt;/div&gt;&lt;div style=&quot;text-align: justify; line-height: 150%;&quot;&gt;&lt;span style=&quot;background-color: initial;&quot;&gt;binary:&amp;nbsp;&lt;/span&gt;&lt;span style=&quot;background-color: initial; font-weight: 400;&quot;&gt;0x00&lt;/span&gt;&lt;/div&gt;&lt;div style=&quot;text-align: justify; line-height: 150%;&quot;&gt;&lt;span style=&quot;background-color: initial;&quot;&gt;value: &lt;span style=&quot;font-weight: 400;&quot;&gt;0&lt;/span&gt;&lt;/span&gt;&lt;/div&gt;" style="rounded=0;whiteSpace=wrap;html=1;fillColor=#d5e8d4;strokeColor=#82b366;align=center;fontStyle=1" vertex="1" parent="1">
          <mxGeometry x="-80" y="420" width="110" height="80" as="geometry" />
        </mxCell>
        <mxCell id="BXKwDYKIKeMLfk2Hn_d0-102" value="&lt;div style=&quot;text-align: justify; line-height: 150%;&quot;&gt;cpu time&lt;/div&gt;&lt;div style=&quot;text-align: justify; line-height: 150%;&quot;&gt;&lt;span style=&quot;background-color: initial;&quot;&gt;pos: &lt;span style=&quot;font-weight: 400;&quot;&gt;97&lt;/span&gt;&lt;/span&gt;&lt;/div&gt;&lt;div style=&quot;text-align: justify; line-height: 150%;&quot;&gt;&lt;span style=&quot;background-color: initial;&quot;&gt;binary:&amp;nbsp;&lt;/span&gt;&lt;span style=&quot;font-weight: normal; background-color: initial;&quot;&gt;0x5d&lt;/span&gt;&lt;/div&gt;&lt;div style=&quot;text-align: justify; line-height: 150%;&quot;&gt;&lt;span style=&quot;background-color: initial;&quot;&gt;value: &lt;span style=&quot;font-weight: 400;&quot;&gt;93&lt;/span&gt;&lt;/span&gt;&lt;/div&gt;" style="rounded=0;whiteSpace=wrap;html=1;fillColor=#d5e8d4;strokeColor=#82b366;align=center;fontStyle=1" vertex="1" parent="1">
          <mxGeometry x="30" y="420" width="110" height="80" as="geometry" />
        </mxCell>
        <mxCell id="BXKwDYKIKeMLfk2Hn_d0-103" value="&lt;div style=&quot;text-align: justify; line-height: 150%;&quot;&gt;&lt;span style=&quot;background-color: initial;&quot;&gt;wait time&lt;/span&gt;&lt;/div&gt;&lt;div style=&quot;text-align: justify; line-height: 150%;&quot;&gt;&lt;span style=&quot;background-color: initial;&quot;&gt;pos: &lt;span style=&quot;font-weight: 400;&quot;&gt;98&lt;/span&gt;&lt;/span&gt;&lt;/div&gt;&lt;div style=&quot;text-align: justify; line-height: 150%;&quot;&gt;&lt;span style=&quot;background-color: initial;&quot;&gt;binary:&amp;nbsp;&lt;/span&gt;&lt;span style=&quot;background-color: initial; font-weight: 400;&quot;&gt;0x00&lt;/span&gt;&lt;/div&gt;&lt;div style=&quot;text-align: justify; line-height: 150%;&quot;&gt;&lt;span style=&quot;background-color: initial;&quot;&gt;value: &lt;span style=&quot;font-weight: 400;&quot;&gt;0&lt;/span&gt;&lt;/span&gt;&lt;/div&gt;" style="rounded=0;whiteSpace=wrap;html=1;fillColor=#d5e8d4;strokeColor=#82b366;align=center;fontStyle=1" vertex="1" parent="1">
          <mxGeometry x="140" y="420" width="110" height="80" as="geometry" />
        </mxCell>
        <mxCell id="BXKwDYKIKeMLfk2Hn_d0-104" value="&lt;b style=&quot;border-color: var(--border-color);&quot;&gt;memory used&lt;br&gt;&lt;/b&gt;&lt;div style=&quot;text-align: justify; line-height: 150%;&quot;&gt;&lt;span style=&quot;background-color: initial;&quot;&gt;pos: &lt;span style=&quot;font-weight: 400;&quot;&gt;99&lt;/span&gt;&lt;/span&gt;&lt;/div&gt;&lt;div style=&quot;text-align: justify; line-height: 150%;&quot;&gt;&lt;span style=&quot;background-color: initial;&quot;&gt;binary:&amp;nbsp;&lt;/span&gt;&lt;span style=&quot;background-color: initial; font-weight: 400;&quot;&gt;0x00&lt;/span&gt;&lt;/div&gt;&lt;div style=&quot;text-align: justify; line-height: 150%;&quot;&gt;&lt;span style=&quot;background-color: initial;&quot;&gt;value: &lt;span style=&quot;font-weight: 400;&quot;&gt;0&lt;/span&gt;&lt;/span&gt;&lt;/div&gt;" style="rounded=0;whiteSpace=wrap;html=1;fillColor=#d5e8d4;strokeColor=#82b366;align=center;fontStyle=1" vertex="1" parent="1">
          <mxGeometry x="250" y="420" width="90" height="80" as="geometry" />
        </mxCell>
        <mxCell id="BXKwDYKIKeMLfk2Hn_d0-105" value="&lt;div style=&quot;text-align: justify;&quot;&gt;&lt;b style=&quot;border-color: var(--border-color); text-align: center;&quot;&gt;file read&lt;/b&gt;&lt;br&gt;&lt;/div&gt;&lt;div style=&quot;text-align: justify; line-height: 150%;&quot;&gt;pos: &lt;span style=&quot;font-weight: 400;&quot;&gt;100&lt;/span&gt;&lt;span style=&quot;background-color: initial;&quot;&gt;&lt;/span&gt;&lt;/div&gt;&lt;div style=&quot;text-align: justify; line-height: 150%;&quot;&gt;&lt;span style=&quot;background-color: initial;&quot;&gt;binary:&amp;nbsp;&lt;/span&gt;&lt;span style=&quot;background-color: initial; font-weight: 400;&quot;&gt;0x00&lt;/span&gt;&lt;/div&gt;&lt;div style=&quot;text-align: justify; line-height: 150%;&quot;&gt;&lt;span style=&quot;background-color: initial;&quot;&gt;value: &lt;span style=&quot;font-weight: 400;&quot;&gt;0&lt;/span&gt;&lt;/span&gt;&lt;/div&gt;" style="rounded=0;whiteSpace=wrap;html=1;fillColor=#d5e8d4;strokeColor=#82b366;align=center;fontStyle=1" vertex="1" parent="1">
          <mxGeometry x="340" y="420" width="100" height="80" as="geometry" />
        </mxCell>
        <mxCell id="BXKwDYKIKeMLfk2Hn_d0-106" value="&lt;div style=&quot;text-align: justify;&quot;&gt;&lt;b style=&quot;border-color: var(--border-color); text-align: center;&quot;&gt;file written&lt;/b&gt;&lt;br&gt;&lt;/div&gt;&lt;div style=&quot;text-align: justify; line-height: 150%;&quot;&gt;pos: &lt;span style=&quot;font-weight: 400;&quot;&gt;101&lt;/span&gt;&lt;span style=&quot;background-color: initial;&quot;&gt;&lt;/span&gt;&lt;/div&gt;&lt;div style=&quot;text-align: justify; line-height: 150%;&quot;&gt;&lt;span style=&quot;background-color: initial;&quot;&gt;binary:&amp;nbsp;&lt;/span&gt;&lt;span style=&quot;background-color: initial; font-weight: 400;&quot;&gt;0x00&lt;/span&gt;&lt;/div&gt;&lt;div style=&quot;text-align: justify; line-height: 150%;&quot;&gt;&lt;span style=&quot;background-color: initial;&quot;&gt;value: &lt;span style=&quot;font-weight: 400;&quot;&gt;0&lt;/span&gt;&lt;/span&gt;&lt;/div&gt;" style="rounded=0;whiteSpace=wrap;html=1;fillColor=#d5e8d4;strokeColor=#82b366;align=center;fontStyle=1" vertex="1" parent="1">
          <mxGeometry x="440" y="420" width="110" height="80" as="geometry" />
        </mxCell>
        <mxCell id="BXKwDYKIKeMLfk2Hn_d0-107" value="&lt;div style=&quot;text-align: justify;&quot;&gt;net read&lt;/div&gt;&lt;div style=&quot;text-align: justify; line-height: 150%;&quot;&gt;&lt;span style=&quot;background-color: initial;&quot;&gt;pos: &lt;span style=&quot;font-weight: 400;&quot;&gt;102&lt;/span&gt;&lt;/span&gt;&lt;/div&gt;&lt;div style=&quot;text-align: justify; line-height: 150%;&quot;&gt;&lt;span style=&quot;background-color: initial;&quot;&gt;binary:&amp;nbsp;&lt;/span&gt;&lt;span style=&quot;background-color: initial; font-weight: 400;&quot;&gt;0x00&lt;/span&gt;&lt;/div&gt;&lt;div style=&quot;text-align: justify; line-height: 150%;&quot;&gt;&lt;span style=&quot;background-color: initial;&quot;&gt;value: &lt;span style=&quot;font-weight: 400;&quot;&gt;0&lt;/span&gt;&lt;/span&gt;&lt;/div&gt;" style="rounded=0;whiteSpace=wrap;html=1;fillColor=#d5e8d4;strokeColor=#82b366;align=center;fontStyle=1" vertex="1" parent="1">
          <mxGeometry x="550" y="420" width="170" height="80" as="geometry" />
        </mxCell>
        <mxCell id="BXKwDYKIKeMLfk2Hn_d0-108" value="&lt;div style=&quot;text-align: justify;&quot;&gt;&lt;b style=&quot;border-color: var(--border-color); text-align: center;&quot;&gt;net written&lt;/b&gt;&lt;br&gt;&lt;/div&gt;&lt;div style=&quot;text-align: justify; line-height: 150%;&quot;&gt;pos: &lt;span style=&quot;font-weight: 400;&quot;&gt;103&lt;/span&gt;&lt;span style=&quot;background-color: initial;&quot;&gt;&lt;/span&gt;&lt;/div&gt;&lt;div style=&quot;text-align: justify; line-height: 150%;&quot;&gt;&lt;span style=&quot;background-color: initial;&quot;&gt;binary:&amp;nbsp;&lt;/span&gt;&lt;span style=&quot;background-color: initial; font-weight: 400;&quot;&gt;0x00&lt;/span&gt;&lt;/div&gt;&lt;div style=&quot;text-align: justify; line-height: 150%;&quot;&gt;&lt;span style=&quot;background-color: initial;&quot;&gt;value: &lt;span style=&quot;font-weight: 400;&quot;&gt;0&lt;/span&gt;&lt;/span&gt;&lt;/div&gt;" style="rounded=0;whiteSpace=wrap;html=1;fillColor=#d5e8d4;strokeColor=#82b366;align=center;fontStyle=1" vertex="1" parent="1">
          <mxGeometry x="720" y="420" width="90" height="80" as="geometry" />
        </mxCell>
        <mxCell id="BXKwDYKIKeMLfk2Hn_d0-109" value="&lt;div style=&quot;text-align: justify;&quot;&gt;&lt;b style=&quot;border-color: var(--border-color); text-align: center;&quot;&gt;&lt;b style=&quot;border-color: var(--border-color);&quot;&gt;transactions&lt;/b&gt;&lt;br style=&quot;border-color: var(--border-color);&quot;&gt;&lt;/b&gt;&lt;/div&gt;&lt;div style=&quot;text-align: justify; line-height: 150%;&quot;&gt;pos: &lt;span style=&quot;font-weight: 400;&quot;&gt;104&lt;/span&gt;&lt;span style=&quot;background-color: initial;&quot;&gt;&lt;/span&gt;&lt;/div&gt;&lt;div style=&quot;text-align: justify; line-height: 150%;&quot;&gt;&lt;span style=&quot;background-color: initial;&quot;&gt;binary:&amp;nbsp;&lt;/span&gt;&lt;span style=&quot;background-color: initial; font-weight: 400;&quot;&gt;0x00&lt;/span&gt;&lt;/div&gt;&lt;div style=&quot;text-align: justify; line-height: 150%;&quot;&gt;&lt;span style=&quot;background-color: initial;&quot;&gt;value: &lt;span style=&quot;font-weight: 400;&quot;&gt;0&lt;/span&gt;&lt;/span&gt;&lt;/div&gt;" style="rounded=0;whiteSpace=wrap;html=1;fillColor=#d5e8d4;strokeColor=#82b366;align=center;fontStyle=1" vertex="1" parent="1">
          <mxGeometry x="810" y="420" width="100" height="80" as="geometry" />
        </mxCell>
        <mxCell id="BXKwDYKIKeMLfk2Hn_d0-110" value="&lt;div style=&quot;text-align: justify;&quot;&gt;&lt;b style=&quot;background-color: initial; border-color: var(--border-color);&quot;&gt;queue wait&amp;nbsp;&lt;/b&gt;&lt;/div&gt;&lt;div style=&quot;text-align: justify;&quot;&gt;&lt;b style=&quot;background-color: initial; border-color: var(--border-color);&quot;&gt;duration&lt;/b&gt;&lt;/div&gt;&lt;div style=&quot;text-align: justify;&quot;&gt;pos: &lt;span style=&quot;font-weight: 400;&quot;&gt;105&lt;/span&gt;&lt;br&gt;&lt;/div&gt;&lt;div style=&quot;text-align: justify; line-height: 150%;&quot;&gt;&lt;span style=&quot;background-color: initial;&quot;&gt;&lt;/span&gt;&lt;/div&gt;&lt;div style=&quot;text-align: justify; line-height: 150%;&quot;&gt;&lt;span style=&quot;background-color: initial;&quot;&gt;binary:&amp;nbsp;&lt;/span&gt;&lt;span style=&quot;background-color: initial; font-weight: 400;&quot;&gt;0x00&lt;/span&gt;&lt;/div&gt;&lt;div style=&quot;text-align: justify; line-height: 150%;&quot;&gt;&lt;span style=&quot;background-color: initial;&quot;&gt;value: &lt;span style=&quot;font-weight: 400;&quot;&gt;0&lt;/span&gt;&lt;/span&gt;&lt;/div&gt;" style="rounded=0;whiteSpace=wrap;html=1;fillColor=#d5e8d4;strokeColor=#82b366;align=center;fontStyle=1" vertex="1" parent="1">
          <mxGeometry x="910" y="420" width="100" height="80" as="geometry" />
        </mxCell>
        <mxCell id="BXKwDYKIKeMLfk2Hn_d0-111" value="&lt;div style=&quot;text-align: justify;&quot;&gt;&lt;b style=&quot;background-color: initial; border-color: var(--border-color);&quot;&gt;nparams&lt;/b&gt;&lt;/div&gt;&lt;div style=&quot;text-align: justify;&quot;&gt;pos: &lt;span style=&quot;font-weight: 400;&quot;&gt;106&lt;/span&gt;&lt;br&gt;&lt;/div&gt;&lt;div style=&quot;text-align: justify; line-height: 150%;&quot;&gt;&lt;span style=&quot;background-color: initial;&quot;&gt;&lt;/span&gt;&lt;/div&gt;&lt;div style=&quot;text-align: justify; line-height: 150%;&quot;&gt;&lt;span style=&quot;background-color: initial;&quot;&gt;binary:&amp;nbsp;&lt;/span&gt;&lt;span style=&quot;background-color: initial; font-weight: 400;&quot;&gt;0x040&lt;/span&gt;&lt;/div&gt;&lt;div style=&quot;text-align: justify; line-height: 150%;&quot;&gt;&lt;span style=&quot;background-color: initial;&quot;&gt;value: &lt;span style=&quot;font-weight: 400;&quot;&gt;0&lt;/span&gt;&lt;/span&gt;&lt;/div&gt;" style="rounded=0;whiteSpace=wrap;html=1;fillColor=#d5e8d4;strokeColor=#82b366;align=center;fontStyle=1" vertex="1" parent="1">
          <mxGeometry x="1010" y="420" width="100" height="80" as="geometry" />
        </mxCell>
        <mxCell id="BXKwDYKIKeMLfk2Hn_d0-112" value="&lt;b&gt;&lt;font style=&quot;font-size: 25px;&quot;&gt;...&lt;/font&gt;&lt;/b&gt;" style="rounded=0;whiteSpace=wrap;html=1;fillColor=#d5e8d4;strokeColor=#82b366;" vertex="1" parent="1">
          <mxGeometry x="-80" y="510" width="1190" height="40" as="geometry" />
        </mxCell>
      </root>
    </mxGraphModel>
  </diagram>
</mxfile>
